<svg width="150" height="145" viewBox="0 0 150 145" fill="none" xmlns="http://www.w3.org/2000/svg">
<path d="M74.9314 0L70.1924 50.4808L74.9314 37.5687L79.6017 50.4808L74.9314 0Z" fill="#0870D8"/>
<path d="M150 72.2527L99.519 67.5824L112.431 72.2527L99.519 76.9231L150 72.2527Z" fill="#679AFF"/>
<path d="M74.9314 144.711L79.6017 94.2307L74.9314 107.143L70.1924 94.2307L74.9314 144.711Z" fill="#0870D8"/>
<path d="M0 72.2527L50.4808 76.9231L37.5687 72.2527L50.4808 67.5824L0 72.2527Z" fill="#679AFF"/>
<path d="M37.6375 34.6154L62.5001 64.5604L58.0358 55.0137L67.5825 59.478L37.6375 34.6154Z" fill="#679AFF"/>
<path d="M37.6375 110.44L67.5825 85.5769L58.0358 90.0412L62.5001 80.4945L37.6375 110.44Z" fill="#679AFF"/>
<path d="M114.492 33.7225L84.5469 58.5852L94.0936 54.1209L89.698 63.6676L114.492 33.7225Z" fill="#679AFF"/>
<path d="M114.492 111.676L89.698 81.7307L94.0936 91.2774L84.5469 86.8131L114.492 111.676Z" fill="#679AFF"/>
<path d="M80.7317 65.392C80.5854 64.1926 79.9919 63.2614 78.9512 62.5985C77.9106 61.9356 76.6341 61.6042 75.122 61.6042C74.0163 61.6042 73.0488 61.7778 72.2195 62.125C71.3984 62.4722 70.7561 62.9497 70.2927 63.5573C69.8374 64.1649 69.6098 64.8554 69.6098 65.6288C69.6098 66.2759 69.7683 66.8322 70.0854 67.2978C70.4106 67.7555 70.8252 68.1383 71.3293 68.446C71.8333 68.7459 72.3618 68.9945 72.9146 69.1918C73.4675 69.3812 73.9756 69.535 74.439 69.6534L76.9756 70.3163C77.626 70.482 78.3496 70.7109 79.1463 71.0028C79.9512 71.2948 80.7195 71.6933 81.4512 72.1984C82.1911 72.6955 82.8008 73.3348 83.2805 74.116C83.7602 74.8973 84 75.8561 84 76.9924C84 78.3024 83.6463 79.4861 82.939 80.5436C82.2398 81.601 81.2154 82.4414 79.8659 83.0649C78.5244 83.6883 76.8943 84 74.9756 84C73.187 84 71.6382 83.7199 70.3293 83.1596C69.0285 82.5993 68.0041 81.818 67.2561 80.8158C66.5163 79.8136 66.0976 78.6496 66 77.3239H69.122C69.2033 78.2393 69.5203 78.9968 70.0732 79.5966C70.6341 80.1884 71.3415 80.6304 72.1951 80.9223C73.0569 81.2064 73.9837 81.3485 74.9756 81.3485C76.1301 81.3485 77.1667 81.167 78.0854 80.804C79.0041 80.4331 79.7317 79.9201 80.2683 79.2652C80.8049 78.6023 81.0732 77.8289 81.0732 76.9451C81.0732 76.1402 80.8415 75.4852 80.378 74.9801C79.9146 74.4751 79.3049 74.0647 78.5488 73.7491C77.7927 73.4334 76.9756 73.1572 76.0976 72.9205L73.0244 72.0682C71.0732 71.5237 69.5285 70.7464 68.3902 69.7363C67.252 68.7262 66.6829 67.4044 66.6829 65.7708C66.6829 64.4135 67.061 63.2298 67.8171 62.2197C68.5813 61.2017 69.6057 60.4126 70.8902 59.8523C72.1829 59.2841 73.626 59 75.2195 59C76.8293 59 78.2602 59.2801 79.5122 59.8404C80.7642 60.3928 81.7561 61.1504 82.4878 62.1132C83.2276 63.0759 83.6179 64.1689 83.6585 65.392H80.7317Z" fill="#0870D8"/>
</svg>
