<svg width="256" height="239" viewBox="0 0 256 239" fill="none" xmlns="http://www.w3.org/2000/svg">
<path d="M63.4196 222.718C52.2814 217.125 42.4481 209.948 36.8557 198.344C32.2886 188.884 31.9157 179.237 35.411 169.217C38.8596 159.337 44.8249 151.228 52.0484 143.911C60.2506 135.616 69.7577 128.998 79.824 123.173C87.1874 118.885 94.8769 115.39 102.66 111.848C113.145 107.048 124.144 103.413 135.189 100.151C138.544 99.1255 141.9 97.9138 145.255 96.8885C146.094 96.6555 147.446 96.6555 147.958 97.1215C148.424 97.5876 148.424 99.0323 148.098 99.8245C145.581 105.603 139.43 119.817 139.243 120.889C140.129 120.47 141.387 119.771 142.506 119.118C145.209 117.441 147.865 115.716 150.521 113.945C156.58 109.891 162.685 105.836 168.743 101.828C171.4 100.058 171.819 100.058 174.382 101.922C182.119 107.607 189.901 113.293 197.684 118.979C198.243 119.351 199.968 120.516 200.574 120.889C200.48 120.19 200.061 118.373 199.968 117.627C197.731 108.213 195.447 98.7527 193.024 89.3854C192.511 87.428 192.651 86.0765 194.375 85.0046C203.649 78.9928 212.877 72.9344 222.104 66.9225C222.664 66.5497 223.782 65.804 224.854 64.9186C223.549 64.7788 222.151 64.7322 221.452 64.7322C211.432 64.8254 201.319 64.9652 191.299 65.0584C187.059 65.105 186.22 64.1263 185.614 59.932C185.055 56.2037 184.169 52.6153 183.237 48.9802C181.886 43.714 180.394 38.4478 178.95 33.2282C178.763 32.7156 178.204 31.1311 177.831 30.3854C177.412 31.1777 176.806 32.5758 176.619 33.135C174.895 37.2361 173.311 41.3838 171.54 45.4849C169.815 49.586 167.951 53.6871 166.134 57.695C165.528 58.9999 164.969 60.2582 164.456 61.5631C163.291 64.8254 162.918 65.105 159.329 65.105C152.665 65.105 146.001 65.1516 139.337 65.1516C135.795 65.1516 132.253 65.1516 128.711 65.1982C127.546 65.2914 125.449 65.3846 124.47 65.4312C125.169 66.0371 126.987 67.4352 127.732 67.9478C133.278 71.8625 138.871 75.7306 144.37 79.6919C144.789 79.9715 145.302 80.7637 145.162 80.9967C144.882 81.556 144.277 82.1618 143.671 82.3483C141.667 83.0007 139.57 83.4667 137.519 83.9794C132.859 85.1445 128.198 86.3561 123.538 87.5212C120.928 88.1737 118.365 88.9193 115.755 89.5252C105.316 92.0418 95.5294 96.3293 85.5097 100.151C74.3248 104.392 63.7459 109.844 53.7727 116.369C46.7822 120.936 39.9781 125.922 33.9197 131.934C28.1408 137.667 23.3407 143.865 19.3328 150.855C14.9055 158.638 13.1345 167.073 13.8336 175.975C14.5326 185.155 18.1677 193.218 23.5737 200.721C27.9078 206.733 40.2111 217.265 40.817 217.871C40.6772 218.104 28.6535 211.067 24.2262 207.525C19.2396 203.517 15.2317 198.717 11.2238 193.917C7.54213 189.536 4.97894 184.41 3.0216 179.097C0.551617 172.246 -0.660072 165.163 0.365203 157.799C1.57689 148.991 4.83913 141.022 10.1519 133.892C17.1424 124.571 25.8573 117.114 35.5508 110.59C45.6637 103.786 56.2893 98.0536 67.4275 93.3C83.2261 86.5426 99.3975 80.6239 116.128 76.3364C117.014 76.0568 118.551 75.4975 119.484 75.1247C118.878 74.5189 117.48 73.3072 116.781 72.8411C110.209 68.0876 95.4362 56.9028 95.2032 56.2503C97.9062 56.0173 114.171 55.1319 122.839 55.1319C132.952 55.0852 143.111 54.8988 153.224 54.8522C155.368 54.8522 156.533 53.9202 157.419 51.9628C161.147 43.0616 164.922 34.2535 168.697 25.3989C171.167 19.7132 173.823 14.0742 176.293 8.29541C177.179 6.29146 179.695 0.699051 180.301 0C180.953 0.699051 184.309 10.1129 185.241 14.1208C186.22 18.3617 187.105 22.5561 188.13 26.7504C190.181 34.9992 192.371 43.2014 194.422 51.4502C194.981 53.6405 195.96 54.4794 198.197 54.4794C211.292 54.3862 224.434 54.3862 237.53 54.3862C240.979 54.3862 244.474 54.4328 247.969 54.3396C249.74 54.293 254.913 54.4328 255.799 54.7124C255.333 55.3649 249.088 60.2582 246.431 62.0292C235.992 68.8333 225.506 75.5908 215.114 82.3949C212.038 84.3988 209.102 86.6358 205.98 88.6397C204.442 89.665 204.162 90.7835 204.675 92.601C206.213 98.24 207.517 103.972 208.916 109.704C210.5 115.949 212.178 122.148 213.809 128.392C215.021 133.193 217.258 144.657 216.885 144.843C216.232 145.076 194.841 129.837 184.915 122.52C180.953 119.584 176.899 116.695 172.938 113.712C171.213 112.407 169.629 112.407 167.858 113.526C158.164 120.004 148.424 126.528 138.731 133.006C133.511 136.501 128.198 139.903 122.932 143.399C121.814 144.144 118.132 146.055 117.34 146.242C117.34 145.542 121.208 135.29 123.165 130.862C125.169 126.249 127.22 121.682 129.177 117.068C129.363 116.695 129.736 115.623 129.83 115.11C129.084 115.297 128.292 115.53 127.872 115.67C122.28 117.86 116.687 120.19 111.142 122.381C101.495 126.155 92.5468 131.422 83.6455 136.641C79.4046 139.111 75.7229 142.606 71.8549 145.682C64.2119 151.787 58.0602 159.197 53.9591 168.099C49.0658 178.584 48.9726 189.163 54.6116 199.556C58.9923 207.618 65.377 213.956 72.9267 218.71C79.4512 222.858 96.9275 229.941 98.3722 230.687C98.4654 231.106 70.8762 226.12 63.4196 222.718Z" fill="#0870D8"/>
<path d="M144.09 236.279C133.418 233.53 122.886 230.174 112.353 226.959C105.036 224.722 98.5586 220.76 91.8943 217.125C85.8824 213.863 80.6162 209.762 75.9559 204.915C70.5965 199.369 66.775 192.845 66.309 185.109C66.076 181.427 67.008 177.373 68.4527 173.971C70.3169 169.683 78.1929 159.524 80.8959 157.892C80.29 159.43 78.9385 162.693 78.4259 164.137C74.6044 174.157 76.4685 183.618 81.5017 192.705C85.2766 199.556 90.7758 204.775 96.7876 209.576C106.481 217.358 117.48 222.858 128.851 227.658C133.931 229.802 139.337 230.967 144.649 232.458C147.772 233.39 150.894 234.275 154.017 235.068C156.906 235.813 164.176 237.864 164.968 238.237C164.875 238.47 150.055 237.771 144.09 236.279Z" fill="#0870D8"/>
</svg>
