<svg width="403" height="316" viewBox="0 0 403 316" fill="none" xmlns="http://www.w3.org/2000/svg">
<path d="M164.941 163.467C157.002 163.467 153.032 159.934 153.032 152.899V151.567C153.032 144.533 157.002 141 164.941 141H192V148.933H164.941C162.782 148.933 161.702 149.801 161.702 151.567V152.899C161.702 154.666 162.782 155.533 164.941 155.533H180.09C188.03 155.533 192 159.066 192 166.101V167.433C192 174.467 188.03 178 180.09 178H153.032L153 170.067H180.059C182.218 170.067 183.298 169.199 183.298 167.433V166.101C183.298 164.334 182.218 163.467 180.059 163.467H164.941V163.467Z" fill="#0870D8"/>
<path d="M217.839 148.933V178H209.161V148.933H194V141H233V148.933H217.839Z" fill="#0870D8"/>
<path d="M235.939 170.06L232.712 178H223L235.939 146.272C237.363 142.737 239.546 141 242.424 141H244.576C247.454 141 249.606 142.768 251.061 146.272L264 178H254.288L251.061 170.06H235.939ZM247.802 162.121L243.5 151.545L239.198 162.121H247.802Z" fill="#0870D8"/>
<path d="M291.608 155.666C293.732 155.666 294.794 154.79 294.794 153.008V151.663C294.794 149.881 293.732 149.005 291.608 149.005H265L265.031 141H291.639C299.447 141 303.351 144.565 303.351 151.663V153.008C303.351 159.199 300.384 162.702 294.45 163.483L314 189H303.351L283.925 163.671H273.557V178.337H265.031V155.666H291.608V155.666Z" fill="#0870D8"/>
<path d="M317.635 163.467C309.899 163.467 306.031 159.934 306.031 152.899V151.567C306.031 144.533 309.899 141 317.635 141H344V148.933H317.635C315.531 148.933 314.479 149.801 314.479 151.567V152.899C314.479 154.666 315.531 155.533 317.635 155.533H332.396C340.132 155.533 344 159.066 344 166.101V167.433C344 174.467 340.132 178 332.396 178H306.031L306 170.067H332.365C334.469 170.067 335.521 169.199 335.521 167.433V166.101C335.521 164.334 334.469 163.467 332.365 163.467H317.635V163.467Z" fill="#0870D8"/>
<path d="M347 141H355V178H347V141Z" fill="#0870D8"/>
<path d="M367.93 141C372.301 141 375.227 144.536 376.705 151.576L379.984 164.416L383.263 151.576C384.709 144.536 387.635 141 392.038 141C399.335 141 403 145.404 403 154.212V178H394.224V152.878C394.224 152.01 393.871 151.545 393.131 151.545C392.392 151.545 391.685 153.313 390.946 156.817L386.574 172.666C385.834 176.201 384.002 177.938 381.109 177.938H378.891C375.966 177.938 374.134 176.17 373.426 172.666L369.055 156.817C368.315 153.282 367.608 151.545 366.869 151.545C366.129 151.545 365.776 151.979 365.776 152.878V178H357V154.212C356.968 145.404 360.633 141 367.93 141Z" fill="#0870D8"/>
<path d="M163.561 0L153.278 110.125L163.561 82.0882L173.844 110.125L163.561 0Z" fill="#0870D8"/>
<path d="M163.561 315.961L173.844 205.748L163.561 233.872L153.278 205.748L163.561 315.961Z" fill="#0870D8"/>
<path d="M0 157.761L110.213 167.956L82.0882 157.761L110.213 147.478L0 157.761Z" fill="#679AFF"/>
<path d="M82.2642 75.4965L136.492 140.886L126.824 120.144L147.654 129.812L82.2642 75.4965Z" fill="#679AFF"/>
<path d="M82.2642 241.167L147.654 186.852L126.824 196.608L136.492 175.778L82.2642 241.167Z" fill="#679AFF"/>
<path d="M250.044 73.651L184.655 127.878L205.484 118.211L195.817 139.04L250.044 73.651Z" fill="#679AFF"/>
<path d="M250.044 243.804L195.817 178.414L205.484 199.244L184.655 189.576L250.044 243.804Z" fill="#679AFF"/>
</svg>
