<?xml version="1.0" encoding="UTF-8" standalone="no"?>
<!-- Created with Inkscape (http://www.inkscape.org/) -->

<svg
   width="132.29167mm"
   height="63.04517mm"
   viewBox="0 0 132.29167 63.04517"
   version="1.1"
   id="svg5"
   xml:space="preserve"
   inkscape:version="1.2 (dc2aedaf03, 2022-05-15)"
   sodipodi:docname="StarSim Logo.svg"
   xmlns:inkscape="http://www.inkscape.org/namespaces/inkscape"
   xmlns:sodipodi="http://sodipodi.sourceforge.net/DTD/sodipodi-0.dtd"
   xmlns="http://www.w3.org/2000/svg"
   xmlns:svg="http://www.w3.org/2000/svg"><sodipodi:namedview
     id="namedview7"
     pagecolor="#ffffff"
     bordercolor="#000000"
     borderopacity="0.25"
     inkscape:showpageshadow="2"
     inkscape:pageopacity="0.0"
     inkscape:pagecheckerboard="0"
     inkscape:deskcolor="#d1d1d1"
     inkscape:document-units="mm"
     showgrid="false"
     inkscape:zoom="4.1373683"
     inkscape:cx="230.09796"
     inkscape:cy="103.32655"
     inkscape:window-width="2680"
     inkscape:window-height="1483"
     inkscape:window-x="659"
     inkscape:window-y="22"
     inkscape:window-maximized="0"
     inkscape:current-layer="layer1"
     showguides="true"><sodipodi:guide
       position="128.41093,11.949384"
       orientation="0,-1"
       id="guide323"
       inkscape:locked="false" /><sodipodi:guide
       position="103.08686,9.391397"
       orientation="1,0"
       id="guide325"
       inkscape:locked="false" /><sodipodi:guide
       position="104.36586,14.507371"
       orientation="1,0"
       id="guide327"
       inkscape:locked="false" /></sodipodi:namedview><defs
     id="defs2" /><g
     inkscape:label="Layer 1"
     inkscape:groupmode="layer"
     id="layer1"
     transform="translate(-40.209831,-75.556586)"><path
       d="m 69.417227,128.91758 c -2.270589,-1.14017 -4.275167,-2.60324 -5.415211,-4.96879 -0.931031,-1.92847 -1.007049,-3.89507 -0.294511,-5.93771 0.703018,-2.0141 1.91908,-3.66717 3.391634,-5.15878 1.672068,-1.69099 3.610148,-3.04011 5.662224,-4.22757 1.501073,-0.87413 3.068624,-1.58661 4.655256,-2.30867 2.137431,-0.97851 4.379643,-1.71952 6.631233,-2.3845 0.683937,-0.20906 1.368078,-0.45607 2.052015,-0.66508 0.171035,-0.0475 0.446648,-0.0475 0.551022,0.0475 0.095,0.095 0.095,0.38952 0.02854,0.55102 -0.513105,1.17798 -1.767024,4.07559 -1.805145,4.29412 0.180617,-0.0854 0.437068,-0.22791 0.665182,-0.36102 0.551023,-0.34187 1.092465,-0.69352 1.633906,-1.05455 1.235164,-0.82643 2.479705,-1.65307 3.714665,-2.47013 0.541646,-0.36082 0.627061,-0.36082 1.149544,0.0192 1.577234,1.15892 3.163642,2.31804 4.750253,3.47717 0.113956,0.0758 0.465608,0.31333 0.589144,0.38936 -0.01916,-0.14249 -0.104578,-0.5129 -0.123536,-0.66497 -0.456026,-1.9191 -0.921634,-3.84764 -1.415577,-5.75722 -0.104578,-0.39903 -0.07604,-0.67454 0.27541,-0.89306 1.890561,-1.225538 3.771744,-2.46058 5.652725,-3.686142 0.11416,-0.076 0.34207,-0.228013 0.5606,-0.408507 -0.26603,-0.0285 -0.55102,-0.038 -0.69352,-0.038 -2.042633,0.019 -4.104229,0.0475 -6.146866,0.0665 -0.86435,0.0095 -1.035385,-0.190014 -1.158922,-1.045047 -0.113955,-0.760037 -0.294572,-1.491554 -0.484566,-2.232591 -0.275409,-1.073547 -0.579562,-2.147093 -0.87393,-3.21114 -0.03812,-0.104497 -0.152077,-0.427507 -0.228115,-0.579522 -0.08542,0.161515 -0.208953,0.446526 -0.247074,0.560523 -0.351448,0.836034 -0.674356,1.681567 -1.035385,2.517601 -0.351651,0.836034 -0.731639,1.672068 -1.102045,2.489103 -0.123537,0.266011 -0.237493,0.522523 -0.342071,0.788535 -0.237492,0.66504 -0.31353,0.722038 -1.04517,0.722038 -1.358496,0 -2.716993,0.0095 -4.075489,0.0095 -0.722058,0 -1.444116,0 -2.166175,0.0095 -0.237492,0.019 -0.664978,0.038 -0.864553,0.0475 0.142495,0.123516 0.513106,0.408527 0.664978,0.513024 1.130586,0.798035 2.270753,1.58657 3.391757,2.394105 0.08542,0.057 0.189994,0.218493 0.161454,0.26601 -0.05708,0.114 -0.180413,0.23749 -0.303949,0.27549 -0.408528,0.13302 -0.836014,0.22801 -1.254123,0.33253 -0.949969,0.23751 -1.900142,0.4845 -2.850111,0.72202 -0.532064,0.13301 -1.054547,0.28501 -1.586611,0.40852 -2.128053,0.51303 -4.123111,1.38706 -6.165687,2.16614 -2.280109,0.86455 -4.436682,1.97597 -6.469779,3.30614 -1.425055,0.93101 -2.812112,1.94743 -4.047154,3.17301 -1.178063,1.16871 -2.156593,2.43221 -2.973627,3.85716 -0.902532,1.58662 -1.263561,3.30614 -1.121045,5.12087 0.142495,1.8714 0.883532,3.51509 1.985578,5.04462 0.883532,1.22558 3.391634,3.37259 3.515151,3.49613 -0.0285,0.0475 -2.479603,-1.38704 -3.382135,-2.10909 -1.016549,-0.81706 -1.833583,-1.79557 -2.650618,-2.77408 -0.75053,-0.89309 -1.273052,-1.93806 -1.672068,-3.02114 -0.503521,-1.39662 -0.750531,-2.84053 -0.541522,-4.34173 0.24701,-1.79556 0.912037,-3.42009 1.995077,-4.87359 1.425056,-1.90014 3.201641,-3.42029 5.177719,-4.75025 2.061576,-1.38704 4.227668,-2.55562 6.498257,-3.52465 3.22064,-1.37756 6.517278,-2.584116 9.927891,-3.458149 0.180616,-0.057 0.493943,-0.171014 0.684141,-0.247012 -0.123537,-0.123496 -0.408528,-0.370508 -0.551023,-0.465505 -1.339742,-0.96905 -4.351266,-3.249139 -4.398765,-3.382155 0.551023,-0.0475 3.866701,-0.227993 5.633725,-0.227993 2.061596,-0.0095 4.132569,-0.04752 6.194165,-0.05702 0.437068,0 0.67456,-0.189994 0.855176,-0.589022 0.759976,-1.814563 1.529532,-3.610147 2.299089,-5.415211 0.503524,-1.159064 1.044966,-2.308608 1.54849,-3.48665 0.180617,-0.408517 0.693518,-1.548563 0.817055,-1.691069 0.132914,0.142506 0.817055,2.061576 1.007049,2.87861 0.199575,0.864533 0.379987,1.719587 0.58894,2.57462 0.418109,1.681568 0.864553,3.353636 1.282662,5.035204 0.113956,0.446505 0.313531,0.61752 0.769557,0.61752 2.669494,-0.019 5.348567,-0.019 8.018267,-0.019 0.7031,0 1.41558,0.0095 2.12805,-0.0095 0.36103,-0.0095 1.41558,0.019 1.5962,0.076 -0.095,0.133016 -1.36808,1.130544 -1.90973,1.491573 -2.12805,1.387057 -4.26568,2.764614 -6.38415,4.151669 -0.627066,0.40851 -1.225587,0.86453 -1.862026,1.27304 -0.313531,0.20901 -0.37061,0.43703 -0.266032,0.80754 0.313531,1.14954 0.579359,2.31804 0.864553,3.48654 0.322908,1.27309 0.664979,2.53679 0.997465,3.80967 0.24708,0.97871 0.7031,3.31571 0.62706,3.35363 -0.13311,0.0475 -4.493798,-3.05906 -6.517273,-4.55068 -0.807678,-0.59852 -1.63411,-1.18746 -2.441584,-1.79556 -0.351652,-0.26603 -0.674559,-0.26603 -1.035589,-0.0379 -1.97618,1.32058 -3.961738,2.65054 -5.937714,3.97112 -1.064129,0.71247 -2.147216,1.40599 -3.220722,2.11867 -0.227911,0.15188 -0.978508,0.54145 -1.139962,0.57957 0,-0.1427 0.788515,-2.23263 1.187461,-3.13531 0.408527,-0.94039 0.826636,-1.8714 1.225582,-2.81199 0.03792,-0.076 0.113956,-0.29457 0.133118,-0.39915 -0.152076,0.0381 -0.31353,0.0856 -0.39915,0.11416 -1.139963,0.44644 -2.280129,0.92143 -3.410511,1.36808 -1.966599,0.76935 -3.790744,1.84306 -5.605327,2.90698 -0.864533,0.50353 -1.61507,1.21601 -2.403585,1.84307 -1.558072,1.24454 -2.812133,2.75511 -3.648167,4.56984 -0.997529,2.13743 -1.016528,4.29402 0.133016,6.4127 0.893032,1.64348 2.194592,2.93552 3.733644,3.90466 1.330058,0.84559 4.892707,2.2895 5.187218,2.44158 0.019,0.0854 -5.605225,-0.93101 -7.125298,-1.62453 z"
       fill="#0870d8"
       id="path9"
       style="stroke-width:0.203856" /><path
       d="m 85.862374,131.68207 c -2.175551,-0.5604 -4.322563,-1.24454 -6.469778,-1.89994 -1.491615,-0.45602 -2.812092,-1.2637 -4.17065,-2.00472 -1.225542,-0.66497 -2.299089,-1.50099 -3.249119,-2.48908 -1.092546,-1.13038 -1.871582,-2.46054 -1.966599,-4.03757 -0.0475,-0.7506 0.142516,-1.57703 0.437027,-2.27055 0.380008,-0.87413 1.985578,-2.94511 2.536601,-3.2778 -0.123496,0.31353 -0.399008,0.97871 -0.503525,1.27308 -0.779015,2.04264 -0.399007,3.97132 0.627041,5.82376 0.769516,1.39662 1.890581,2.46054 3.116123,3.43925 1.976058,1.58641 4.21827,2.70762 6.536317,3.68613 1.035589,0.43707 2.137635,0.67456 3.220518,0.97851 0.636642,0.18999 1.273081,0.3704 1.909723,0.53206 0.58894,0.15188 2.070974,0.56998 2.232428,0.64602 -0.01896,0.0475 -3.040105,-0.095 -4.256107,-0.39915 z"
       fill="#0870d8"
       id="path11"
       style="stroke-width:0.203856" /><path
       d="m 86.631207,122.15323 c -2.375127,0 -3.562792,-1.08309 -3.562792,-3.23968 v -0.40853 c 0,-2.15659 1.187665,-3.23947 3.562792,-3.23947 h 8.094307 v 2.432 h -8.094307 c -0.64602,0 -0.969132,0.26603 -0.969132,0.80747 v 0.40853 c 0,0.54164 0.323112,0.80768 0.969132,0.80768 h 4.531719 c 2.374923,0 3.562588,1.08288 3.562588,3.23947 v 0.40853 c 0,2.15659 -1.187665,3.23968 -3.562588,3.23968 h -8.094511 l -0.0094,-2.432 h 8.094307 c 0.64602,0 0.968928,-0.26603 0.968928,-0.80768 v -0.40853 c 0,-0.54144 -0.322908,-0.80747 -0.968928,-0.80747 z"
       fill="#0870d8"
       id="path13"
       style="stroke-width:0.203856" /><path
       d="m 102.86804,117.69755 v 8.91136 h -2.59345 v -8.91136 h -4.531722 v -2.432 h 11.656892 v 2.432 z"
       fill="#0870d8"
       id="path15"
       style="stroke-width:0.203856" /><path
       d="m 108.69709,124.2034 -0.96913,2.432 h -2.91657 l 3.8857,-9.71884 c 0.42749,-1.08308 1.08288,-1.61515 1.94744,-1.61515 h 0.64602 c 0.86455,0 1.51057,0.54165 1.94764,1.61515 l 3.8857,9.71884 h -2.91657 l -0.96913,-2.432 z m 3.56259,-2.43221 -1.29204,-3.23968 -1.29204,3.23968 z"
       fill="#0870d8"
       id="path17"
       style="stroke-width:0.203856" /><path
       d="m 126.17417,119.7212 c 0.64602,0 0.96914,-0.26604 0.96914,-0.80768 v -0.40853 c 0,-0.54144 -0.32312,-0.80747 -0.96914,-0.80747 h -8.0943 l 0.01,-2.432 h 8.0943 c 2.37513,0 3.56259,1.08288 3.56259,3.23947 v 0.40853 c 0,1.88118 -0.90247,2.94511 -2.70761,3.1828 l 5.94729,7.75224 h -3.23968 l -5.90917,-7.69536 h -3.15427 v 4.45568 h -2.59345 v -6.88768 z"
       fill="#0870d8"
       id="path19"
       style="stroke-width:0.203856" /><path
       d="m 135.18383,122.12674 c -2.37512,0 -3.56279,-1.08309 -3.56279,-3.23968 v -0.40853 c 0,-2.15659 1.18767,-3.23947 3.56279,-3.23947 h 8.09431 v 2.432 h -8.09431 c -0.64602,0 -0.96913,0.26603 -0.96913,0.80747 v 0.40853 c 0,0.54164 0.32311,0.80768 0.96913,0.80768 h 4.53152 c 2.37513,0 3.56279,1.08288 3.56279,3.23947 v 0.40853 c 0,2.15659 -1.18766,3.23968 -3.56279,3.23968 h -8.09431 l -0.009,-2.432 h 8.0943 c 0.64602,0 0.96893,-0.26603 0.96893,-0.80768 v -0.40853 c 0,-0.54144 -0.32291,-0.80747 -0.96893,-0.80747 z"
       fill="#0870d8"
       id="path21"
       style="stroke-width:0.203856" /><path
       d="m 144.30123,115.26555 h 2.59366 v 11.33398 h -2.59366 z"
       fill="#0870d8"
       id="path23"
       style="stroke-width:0.203856" /><path
       d="m 151.14689,115.26555 c 1.29204,0 2.15659,1.08288 2.59345,3.23947 l 0.96914,3.9332 0.96892,-3.9332 c 0.42769,-2.15659 1.29225,-3.23947 2.59366,-3.23947 2.1566,0 3.23968,1.34891 3.23968,4.04715 v 7.28683 h -2.59366 v -7.69536 c 0,-0.26603 -0.10437,-0.40853 -0.3229,-0.40853 -0.21854,0 -0.42749,0.54145 -0.64602,1.61495 l -1.29204,4.85483 c -0.21854,1.08309 -0.76018,1.61495 -1.61515,1.61495 h -0.65561 c -0.86455,0 -1.40599,-0.54144 -1.61494,-1.61495 l -1.29204,-4.85483 c -0.21854,-1.08288 -0.42749,-1.61495 -0.64602,-1.61495 -0.21854,0 -0.32311,0.13292 -0.32311,0.40853 v 7.69536 h -2.59366 v -7.28683 c -0.009,-2.69824 1.07371,-4.04715 3.2303,-4.04715 z"
       fill="#0870d8"
       id="path25"
       style="stroke-width:0.203856" /></g></svg>
